<?xml version="1.0" encoding="UTF-8"?>
<svg version="1.1" xmlns="http://www.w3.org/2000/svg" width="993" height="619">
<path d="M0 0 C3.56681968 3.50063128 6.23330089 7.65130449 8.89453125 11.859375 C9.63703125 10.8384375 9.63703125 10.8384375 10.39453125 9.796875 C14.5700376 4.89065503 19.24605383 -0.60051619 25.9453125 -1.37890625 C31.48349883 -1.56064293 34.5420828 -0.88575506 38.89453125 2.859375 C42.13510882 6.27998466 43.63123776 9.33257333 44.89453125 13.859375 C45.52359375 13.44945313 46.15265625 13.03953125 46.80078125 12.6171875 C55.58859366 7.08510077 62.50900192 4.53830238 72.89453125 6.859375 C78.18651258 8.80480814 81.21748987 11.91714476 83.89453125 16.859375 C85.41547659 20.66173834 84.96175549 24.82592046 84.89453125 28.859375 C85.87292969 28.65441406 86.85132813 28.44945312 87.859375 28.23828125 C89.18355003 27.96593319 90.50777132 27.69380994 91.83203125 27.421875 C93.76369141 27.02162109 93.76369141 27.02162109 95.734375 26.61328125 C103.61155749 25.11299941 111.38586333 24.67770372 119.39453125 24.671875 C120.72291016 24.65350586 120.72291016 24.65350586 122.078125 24.63476562 C130.59434598 24.61600743 138.0691435 25.36577023 144.89453125 30.859375 C147.24002799 34.37762011 147.47444528 35.71713194 146.89453125 39.859375 C142.44695908 45.29529654 138.66720506 46.89602488 131.89453125 47.859375 C118.87777086 48.63019765 106.16178894 46.71470809 93.29736328 44.99560547 C83.97552403 43.76175857 74.73881259 42.63390306 65.32421875 42.578125 C64.6282962 42.57083374 63.93237366 42.56354248 63.21536255 42.55603027 C59.62300653 42.59305735 56.90988613 42.83070825 53.89453125 44.859375 C52.21671862 46.75713752 52.21671862 46.75713752 50.76953125 48.921875 C48.08897569 52.76215278 48.08897569 52.76215278 45.89453125 53.859375 C39.91210302 54.41888268 34.95489904 54.37963086 29.89453125 50.859375 C27.11844672 48.29099023 24.47838297 45.6202927 21.89453125 42.859375 C21.55421875 43.36726563 21.21390625 43.87515625 20.86328125 44.3984375 C15.69957334 51.73200139 9.57056866 57.11196315 0.89453125 59.859375 C-9.65581313 61.63254212 -18.98659695 60.70734713 -28.10546875 54.859375 C-29.95162268 53.28655939 -31.48832182 51.6786653 -33.10546875 49.859375 C-36.6897878 51.41813701 -39.28863246 53.6202823 -42.23046875 56.171875 C-51.16466772 63.59910065 -59.31657304 67.31656202 -70.9296875 67.203125 C-77.36342616 66.50673016 -82.88380426 63.65759889 -87.10546875 58.734375 C-88.45840323 56.78953169 -89.79130365 54.83062265 -91.10546875 52.859375 C-91.84796875 53.643125 -92.59046875 54.426875 -93.35546875 55.234375 C-97.15184598 58.85818962 -98.72255546 59.72554468 -103.98046875 60.234375 C-109.15333451 60.09951444 -112.3198419 57.70877424 -115.85546875 54.046875 C-117.52326165 51.12823742 -118.2199029 48.09018941 -119.10546875 44.859375 C-119.66419678 44.98054688 -120.2229248 45.10171875 -120.79858398 45.2265625 C-123.37811023 45.780326 -125.96041788 46.31990072 -128.54296875 46.859375 C-129.42146484 47.05015625 -130.29996094 47.2409375 -131.20507812 47.4375 C-139.27668642 49.10543382 -146.8500391 50.57540427 -154.10546875 45.859375 C-155.73738198 42.59554854 -155.65409863 40.45594867 -155.10546875 36.859375 C-148.86402433 30.77634287 -140.09162874 29.46783644 -131.73046875 29.484375 C-130.95606445 29.48453613 -130.18166016 29.48469727 -129.38378906 29.48486328 C-118.9024595 29.68650895 -108.97126046 32.45843438 -99.10546875 35.859375 C-99.01910156 35.19550781 -98.93273437 34.53164062 -98.84375 33.84765625 C-97.91417191 28.00581229 -97.0168524 24.60138159 -92.10546875 20.859375 C-87.12129964 17.83020326 -81.7510507 18.27201335 -76.10546875 18.859375 C-67.64991319 21.31493056 -67.64991319 21.31493056 -65.10546875 23.859375 C-64.84894531 23.03695312 -64.59242187 22.21453125 -64.328125 21.3671875 C-60.20755898 9.35233844 -53.34841978 0.9117301 -42.10546875 -5.140625 C-27.9610255 -11.83092032 -12.22073873 -9.65712144 0 0 Z " fill="#EAF9FB" transform="translate(155.10546875,73.140625)"/>
<path d="M0 0 C5.15999245 4.12188746 7.49548444 9.44716168 10.10546875 15.33203125 C10.78977361 16.87108122 11.47960689 18.40768879 12.17578125 19.94140625 C12.6246167 20.95412598 12.6246167 20.95412598 13.08251953 21.98730469 C13.8904966 23.77035692 13.8904966 23.77035692 15.98046875 24.58203125 C16.35171875 23.40640625 16.35171875 23.40640625 16.73046875 22.20703125 C17.98046875 19.58203125 17.98046875 19.58203125 19.73046875 18.26953125 C23.66276266 17.067997 26.73263151 17.13637509 30.60546875 18.51953125 C34.09816987 21.55266644 35.3787391 25.31373492 36.98046875 29.58203125 C37.47353516 28.82019531 37.47353516 28.82019531 37.9765625 28.04296875 C41.75678924 22.57239671 45.74676533 18.18177971 51.98046875 15.58203125 C57.68151837 14.62818768 62.29591241 14.78408351 67.54296875 17.26953125 C71.13664201 20.67891357 72.7621547 22.929082 73.41796875 27.89453125 C72.42038155 36.30276622 68.33098625 40.42417976 61.98046875 45.58203125 C62.89747559 45.49115234 63.81448242 45.40027344 64.75927734 45.30664062 C68.20683702 44.96732245 71.65476763 44.63239223 75.10302734 44.30029297 C76.58691884 44.15650379 78.07064892 44.01103735 79.55419922 43.86376953 C106.15219202 41.22728609 106.15219202 41.22728609 118.10546875 45.76953125 C120.83914286 48.41208289 120.77165069 50.89291213 120.98046875 54.58203125 C119.69578836 55.22126835 118.40208768 55.84237107 117.10546875 56.45703125 C116.38617187 56.80507813 115.666875 57.153125 114.92578125 57.51171875 C105.52831957 60.92671145 95.92799026 60.97781722 86.04296875 60.95703125 C85.29433563 60.95814911 84.54570251 60.95926697 83.77438354 60.9604187 C65.68431099 60.94728417 45.50009895 60.47078799 27.98046875 55.58203125 C27.91859375 56.51015625 27.85671875 57.43828125 27.79296875 58.39453125 C26.98046875 61.58203125 26.98046875 61.58203125 24.85546875 63.45703125 C17.72839228 66.24588726 11.29168364 63.62670619 4.3828125 61.359375 C0.69783413 60.51745687 -1.41567652 60.48606447 -5.01953125 61.58203125 C-7.45669473 63.31770439 -7.45669473 63.31770439 -9.58203125 65.51953125 C-14.47891279 70.32912435 -18.3305507 71.87714371 -25.20703125 72.01953125 C-33.65604391 71.9045787 -39.47117556 68.64549903 -46.01953125 63.58203125 C-46.76396484 64.37867187 -46.76396484 64.37867187 -47.5234375 65.19140625 C-54.06405981 71.99266056 -59.98841395 76.59718225 -69.70703125 76.89453125 C-75.13983717 76.83033266 -79.43094686 75.49094978 -84.01953125 72.58203125 C-86.45703125 70.01953125 -86.45703125 70.01953125 -88.01953125 67.58203125 C-88.67953125 66.59203125 -89.33953125 65.60203125 -90.01953125 64.58203125 C-90.55320312 64.85917969 -91.086875 65.13632813 -91.63671875 65.421875 C-98.17667035 68.60133244 -104.55826694 70.47428411 -111.83203125 69.01953125 C-115.98661263 66.28937777 -118.57502925 63.20128854 -119.89453125 58.39453125 C-120.01953125 55.58203125 -120.01953125 55.58203125 -119.01953125 52.58203125 C-120.09654297 52.6903125 -120.09654297 52.6903125 -121.1953125 52.80078125 C-128.15731572 53.42502064 -135.09394151 53.7409725 -142.08203125 53.83203125 C-143.31336792 53.86393555 -143.31336792 53.86393555 -144.56958008 53.89648438 C-148.08719489 53.91686158 -150.39509065 53.91261745 -153.54296875 52.24609375 C-155.01953125 50.58203125 -155.01953125 50.58203125 -155.58203125 47.70703125 C-154.81120684 43.42467343 -153.51656406 42.15127984 -150.01953125 39.58203125 C-143.20200603 37.18961586 -136.03349887 37.23470436 -128.89453125 37.26953125 C-127.79955322 37.27082031 -126.7045752 37.27210937 -125.57641602 37.2734375 C-117.07217508 37.37377513 -109.22525876 38.34046666 -101.01953125 40.58203125 C-100.59027344 39.17244141 -100.59027344 39.17244141 -100.15234375 37.734375 C-98.75694184 33.8513083 -97.6415344 32.55051122 -94.01953125 30.58203125 C-88.96129843 30.74261007 -84.77100948 31.80022691 -80.01953125 33.58203125 C-79.44203125 32.63328125 -78.86453125 31.68453125 -78.26953125 30.70703125 C-75.21953125 26.47092014 -75.21953125 26.47092014 -72.01953125 25.58203125 C-66.59973979 25.15188907 -63.47242247 25.17687914 -59.01953125 28.58203125 C-58.35953125 29.24203125 -57.69953125 29.90203125 -57.01953125 30.58203125 C-56.73980469 29.83179688 -56.46007812 29.0815625 -56.171875 28.30859375 C-51.12951104 15.43516293 -44.28012978 4.85480348 -31.58203125 -1.35546875 C-21.3998888 -5.23991093 -9.62591877 -5.36666267 0 0 Z " fill="#EAF9FB" transform="translate(574.01953125,3.41796875)"/>
<path d="M0 0 C5.16380426 3.901541 7.33013976 9.27020253 10 15 C10.76585623 16.54414519 11.53620464 18.08607646 12.3125 19.625 C12.869375 20.73875 13.42625 21.8525 14 23 C14.928125 21.7934375 14.928125 21.7934375 15.875 20.5625 C18.70815513 17.14604822 19.32562876 17.0663316 23.8125 16.625 C27.21955443 16.68065062 27.94678821 16.96182633 30.875 19.0625 C33.3397107 22.46960009 34.12121689 24.92564194 35 29 C35.36351562 28.48050781 35.72703125 27.96101563 36.1015625 27.42578125 C40.64430208 21.12418608 44.51014002 16.30078173 52.375 14.5 C57.6157965 13.75131479 61.48030538 14.18183747 66 17 C68.60108241 19.21092004 69.76557054 20.70087006 70.375 24.078125 C70.72566152 30.52153034 68.94672409 34.70267418 64.62109375 39.54296875 C63.45113144 40.73293041 62.23014673 41.8723655 61 43 C70.35973686 42.39342147 70.35973686 42.39342147 79.6875 41.4375 C104.78408527 38.89870779 104.78408527 38.89870779 114 44 C116.1519437 47.22791555 116.20086443 48.28400809 116 52 C105.37324771 57.90375127 95.1406686 58.40210821 83.125 58.375 C82.07649368 58.37667679 82.07649368 58.37667679 81.00680542 58.37838745 C68.93960893 58.36903317 57.04598995 57.4380515 45.0625 56.0625 C44.26757141 55.97127869 43.47264282 55.88005737 42.65362549 55.78607178 C29.49469969 54.24734985 29.49469969 54.24734985 27 53 C26.938125 53.928125 26.87625 54.85625 26.8125 55.8125 C26 59 26 59 24.0625 60.9375 C17.87344088 63.08472459 11.81327414 61.35036533 5.75 59.375 C1.67363676 58.11341946 -0.89883957 57.34208408 -5 59 C-7.32999649 60.96889002 -9.54514677 63.03812633 -11.7734375 65.12109375 C-16.13654944 68.80294786 -21.21377732 69.47321076 -26.81640625 69.3203125 C-33.14986173 68.39125463 -38.81197204 65.88603262 -43 61 C-43.66 61 -44.32 61 -45 61 C-45.70125 61.886875 -46.4025 62.77375 -47.125 63.6875 C-50.74519596 68.23429374 -55.51649145 71.17216382 -61 73 C-68.19745941 73.6892232 -74.36556748 73.93202743 -80.34375 69.51171875 C-82.88273711 67.1942942 -84.94698263 64.75874209 -87 62 C-87.51046875 62.28875 -88.0209375 62.5775 -88.546875 62.875 C-94.97348777 66.15667461 -100.83162276 67.04495295 -108 66 C-111.56921121 64.00124172 -113.76455075 61.9309749 -115 58 C-115.0777346 55.66796188 -115.08967728 53.33160941 -115 51 C-119.40224973 50.9199591 -123.74600157 50.96165019 -128.13671875 51.29296875 C-128.87414307 51.34654541 -129.61156738 51.40012207 -130.37133789 51.45532227 C-131.84661338 51.56639544 -133.32117016 51.6875903 -134.79467773 51.82006836 C-139.59436571 52.17447453 -143.43296212 51.78310043 -148 50 C-150 47 -150 47 -149.875 44.5625 C-148.76612913 41.31509245 -147.76365558 40.05502595 -145 38 C-138.14790693 35.77426211 -131.60348068 35.65430015 -124.4375 35.6875 C-123.29104004 35.68878906 -122.14458008 35.69007813 -120.96337891 35.69140625 C-112.31561253 35.78905217 -104.33784554 36.68851807 -96 39 C-95.88785156 37.88753906 -95.77570312 36.77507812 -95.66015625 35.62890625 C-95 32 -95 32 -92.4375 29.9375 C-87.98068198 28.72200418 -85.27151045 29.5819277 -81 31 C-79.66915775 31.34314399 -78.33641852 31.67925956 -77 32 C-76.443125 30.8553125 -76.443125 30.8553125 -75.875 29.6875 C-73.52771052 26.32305175 -71.87958723 25.31759566 -68 24 C-62.27343501 23.71928603 -59.34886059 25.25410102 -55 29 C-54.70867187 28.2265625 -54.41734375 27.453125 -54.1171875 26.65625 C-49.38419747 14.6302879 -42.38681012 4.15633761 -30.25 -1.4375 C-20.1582852 -5.60500445 -9.57083654 -5.2630916 0 0 Z " fill="#EAF9FB" transform="translate(766,372)"/>
<path d="M0 0 C5.08722618 3.02134753 11.35745852 7.41004725 13.21484375 13.24609375 C13.30894531 13.82488281 13.40304687 14.40367187 13.5 15 C14.16 15 14.82 15 15.5 15 C15.70625 14.278125 15.9125 13.55625 16.125 12.8125 C17.98134044 9.01544 20.09467803 7.5018692 23.5 5 C27.22400871 3.75866376 30.63176 3.45888514 34.5 4 C38.25212276 6.01502889 40.13644095 7.45466142 42.5 11 C42.625 14.1875 42.625 14.1875 42.5 17 C43.54800781 16.36771484 43.54800781 16.36771484 44.6171875 15.72265625 C45.52726563 15.17480469 46.43734375 14.62695312 47.375 14.0625 C48.27992188 13.51722656 49.18484375 12.97195312 50.1171875 12.41015625 C55.4531066 9.25234183 60.37348251 9.43592166 66.5 10 C70.26418382 11.20663732 72.76530019 13.19420021 75.4375 16.125 C77.01460738 20.39246702 76.73589136 24.50059079 76.5 29 C77.3353125 28.69320312 78.170625 28.38640625 79.03125 28.0703125 C92.01259687 24.06480682 109.50832762 22.69404798 122.5 27 C126.3666806 29.13061992 127.24372939 30.25816403 128.6875 34.4375 C128.5 38 128.5 38 125.75 40.875 C112.95911389 49.23827169 90.25886303 43.37007518 75.73583984 41.4230957 C75.04432327 41.33123489 74.3528067 41.23937408 73.64033508 41.14472961 C71.75105022 40.89137932 69.86290456 40.6295745 67.97485352 40.3671875 C62.15114984 39.75179719 56.85571992 39.38164804 51.5 42 C50.13823419 43.98075027 48.80406884 45.98079663 47.5 48 C44.0587211 50.19859485 40.74266284 50.41781496 36.703125 49.82421875 C32.15568349 48.1229596 28.85211732 44.40643403 25.5 41 C25.1596875 41.44730469 24.819375 41.89460938 24.46875 42.35546875 C18.6208837 49.64974879 11.89507897 54.08441879 2.44921875 55.25390625 C-5.26756237 55.67880894 -12.41689652 53.17630834 -18.6875 48.75 C-19.285625 48.1725 -19.88375 47.595 -20.5 47 C-24.90083222 48.97500763 -28.67294701 51.88962013 -32.546875 54.72265625 C-39.80167484 59.88276036 -46.74490068 61.11595878 -55.5 60 C-61.23580529 57.80551292 -64.90109239 53.8360321 -68.5 49 C-69.11875 49.639375 -69.7375 50.27875 -70.375 50.9375 C-73.25096309 53.72887594 -74.90116846 54.18760034 -78.8125 54.3125 C-82.04248444 54.25546978 -83.44062007 54.03098083 -86.375 52.5 C-89.19668919 49.18036566 -90.18700025 46.146315 -91.5 42 C-92.37140625 42.2165625 -93.2428125 42.433125 -94.140625 42.65625 C-110.25750923 46.42383333 -110.25750923 46.42383333 -117.5 45 C-119.8203125 43.17578125 -119.8203125 43.17578125 -121.5 41 C-121.75 37.75 -121.75 37.75 -121.5 35 C-119.94148245 34.17988688 -118.37798284 33.36923787 -116.8125 32.5625 C-115.94238281 32.11003906 -115.07226562 31.65757812 -114.17578125 31.19140625 C-102.23383816 25.87419071 -87.22994377 29.8621364 -75.5 34 C-75.32984375 33.39671875 -75.1596875 32.7934375 -74.984375 32.171875 C-72.50835073 24.00626305 -72.50835073 24.00626305 -68.5 21 C-61.4330695 18.6443565 -55.71134394 19.89595375 -49.15234375 23.125 C-48.60707031 23.41375 -48.06179688 23.7025 -47.5 24 C-47.13648438 23.21496094 -46.77296875 22.42992187 -46.3984375 21.62109375 C-41.2460794 10.85398644 -36.06264324 3.4347326 -24.734375 -1.109375 C-16.97546031 -3.24588774 -7.40239908 -3.41383933 0 0 Z " fill="#EAF9FB" transform="translate(528.5,198)"/>
<path d="M0 0 C0.60972656 0.32742188 1.21945312 0.65484375 1.84765625 0.9921875 C8.38846916 5.39558489 9.77340323 14.46858248 11.25 21.6875 C11.50904227 23.1233981 11.76266162 24.56035534 12 26 C15.60394392 26 16.7624445 25.06412764 19.75 23.125 C26.7084103 18.85919194 32.00527334 17.19473914 40 19 C44.26861187 21.56116712 46.23981364 24.36793063 48 29 C48.4 34.2 48.4 34.2 47 37 C47.58789307 36.99476318 48.17578613 36.98952637 48.78149414 36.98413086 C82.7409281 36.72252235 82.7409281 36.72252235 89 40 C89.8125 42.625 89.8125 42.625 90 45 C84.32938175 50.17026958 79.17302629 50.12610706 71.73046875 50.1328125 C71.05003006 50.13376923 70.36959137 50.13472595 69.66853333 50.13571167 C68.23564562 50.1363887 66.80275477 50.13456789 65.36987305 50.13037109 C63.20419222 50.12504108 61.03872113 50.13031944 58.87304688 50.13671875 C51.84663696 50.14020932 44.97328015 49.95282674 38 49 C30.33491277 48.0053159 30.33491277 48.0053159 23.36328125 50.75 C21.70843136 52.20481309 20.06121236 53.66835386 18.421875 55.140625 C14.44785376 58.19164776 10.88999374 58.46605512 6 58 C1.22707079 57.11591021 -3.63415285 56.18292358 -8 54 C-10.78444577 53.24616662 -10.78444577 53.24616662 -14 54 C-15.94833275 55.88265861 -17.5903183 57.92295419 -19.3046875 60.01953125 C-22.40028513 63.63581696 -25.11803219 64.7696618 -29.80859375 65.34375 C-38.51688147 65.76191508 -45.13632603 63.52613151 -53 60 C-62.4953059 55.85857533 -69.36671517 54.20743985 -79.58203125 56.50390625 C-84.73372144 57.56087661 -88.59271202 57.75576577 -93.375 55.1875 C-96 53 -96 53 -98 50 C-98 48.68 -98 47.36 -98 46 C-98.71615479 46.14074951 -99.43230957 46.28149902 -100.17016602 46.42651367 C-107.81538529 47.82829165 -115.17338417 48.33589999 -122.9375 48.3125 C-124.03384766 48.32861328 -125.13019531 48.34472656 -126.25976562 48.36132812 C-127.31744141 48.36197266 -128.37511719 48.36261719 -129.46484375 48.36328125 C-130.409646 48.36626221 -131.35444824 48.36924316 -132.32788086 48.37231445 C-135.8040412 47.8879705 -138.50226405 46.49773595 -141 44 C-141.04080783 42.00041636 -141.04254356 39.99954746 -141 38 C-131.56606121 33.43584819 -119.21239036 31.72030283 -109 35 C-108.484375 34.071875 -107.96875 33.14375 -107.4375 32.1875 C-105.02467163 28.63971752 -102.21639887 26.8145316 -98 26 C-92.72529784 25.95054967 -87.76042092 26.61978954 -83 29 C-82.95875 28.113125 -82.9175 27.22625 -82.875 26.3125 C-81.66858075 21.74534142 -79.79981002 20.71415001 -76 18 C-72.76685377 16.38342689 -69.50493045 16.54335086 -66 17 C-62.87524699 18.10597904 -59.94073955 19.47517208 -57 21 C-56.9175 19.989375 -56.835 18.97875 -56.75 17.9375 C-55.69379316 10.93836932 -51.80800689 5.94687853 -46.42578125 1.578125 C-33.96552342 -6.52806528 -13.03307724 -7.22199877 0 0 Z " fill="#EAF9FB" transform="translate(478,387)"/>
<path d="M0 0 C3.69505166 3.32554649 4.28935466 8.25121701 5 13 C5 14.32 5 15.64 5 17 C5.78503906 16.566875 6.57007813 16.13375 7.37890625 15.6875 C18.38433727 9.85394638 18.38433727 9.85394638 24 11 C26.75329021 12.79562405 28.52627461 14.05254922 30 17 C30.04022391 19.3329866 30.04320247 21.66706666 30 24 C30.6297876 23.98952637 31.2595752 23.97905273 31.90844727 23.96826172 C34.79309006 23.9263977 37.67766866 23.90057799 40.5625 23.875 C42.0484668 23.84986328 42.0484668 23.84986328 43.56445312 23.82421875 C49.12728491 23.78725641 53.74843075 24.12917449 59 26 C58.8125 28.375 58.8125 28.375 58 31 C54.51267306 32.80538946 51.61135709 33.2483087 47.71875 33.23046875 C46.21731445 33.22781006 46.21731445 33.22781006 44.68554688 33.22509766 C43.10870117 33.20648682 43.10870117 33.20648682 41.5 33.1875 C40.42298828 33.18540527 39.34597656 33.18331055 38.23632812 33.18115234 C32.57673387 33.144435 27.10773663 32.85903156 21.5 32.125 C17.44511064 31.70747719 17.44511064 31.70747719 13.80078125 33.26953125 C12.4999461 34.3608016 11.21990539 35.47747521 9.96484375 36.62109375 C6.31031281 39.18580433 2.25535302 38.63758656 -2 38 C-4.00382009 37.34490497 -6.00458132 36.68025637 -8 36 C-11.13362718 35.91107661 -11.13362718 35.91107661 -14 37 C-16.26877535 39.41880929 -16.26877535 39.41880929 -18 42 C-22.63517708 44.31758854 -29.05030707 43.91965022 -33.90283203 42.40673828 C-37.12489631 41.16984742 -40.23139965 39.77493003 -43.359375 38.3125 C-48.91731494 36.30877916 -53.88679714 36.69033666 -59.6875 37.6875 C-62.80040872 38.0584684 -63.96412473 38.01345323 -67 36.875 C-69.39459008 34.6300718 -69.73852205 33.22489472 -70 30 C-70.99 30.495 -70.99 30.495 -72 31 C-80.59545677 32.38691633 -90.96881276 33.82369799 -99 30 C-100 29 -100 29 -100.0625 26.4375 C-100.041875 25.633125 -100.02125 24.82875 -100 24 C-93.79265408 21.61255926 -87.80208849 20.4395823 -81.25 21.75 C-80.1775 21.8325 -79.105 21.915 -78 22 C-76.29115995 20.37660195 -74.62553283 18.70680947 -73 17 C-68.01113019 15.63939914 -64.7476642 16.03145631 -60 18 C-59.9071875 17.13375 -59.9071875 17.13375 -59.8125 16.25 C-58.61660986 12.93830422 -56.98356441 11.81608269 -54 10 C-49.56449708 9.53310496 -46.86074463 9.88799528 -43 12 C-42.67128906 11.11248047 -42.67128906 11.11248047 -42.3359375 10.20703125 C-40.07186261 4.56525115 -38.10032 1.3662112 -33 -2 C-22.67648474 -6.39298522 -9.42226312 -6.59795755 0 0 Z " fill="#EAF9FB" transform="translate(865,576)"/>
<path d="M0 0 C3.9345713 5.05546662 4.71077295 10.75269574 5 17 C5.78503906 16.566875 6.57007813 16.13375 7.37890625 15.6875 C18.38433727 9.85394638 18.38433727 9.85394638 24 11 C26.75329021 12.79562405 28.52627461 14.05254922 30 17 C30 19.31 30 21.62 30 24 C34.95 24 39.9 24 45 24 C45 26.97 45 29.94 45 33 C42.39574613 33.02747747 39.79184133 33.04855403 37.1875 33.0625 C36.02686035 33.06963013 36.02686035 33.06963013 34.84277344 33.0769043 C30.42072389 33.07920457 26.14447859 32.8670844 21.75 32.3125 C18.40922545 31.95365735 17.23101244 31.90169683 14.0625 33.25 C12.76375258 34.35196751 11.47336514 35.46394024 10.1953125 36.58984375 C7.51497386 38.31155594 5.97512838 38.37182781 2.8125 38.3125 C1.84699219 38.29445312 0.88148438 38.27640625 -0.11328125 38.2578125 C-2.86418419 38.01212969 -5.23142942 37.45798791 -7.875 36.6875 C-9.99984416 36.06348489 -9.99984416 36.06348489 -12 36 C-14.95910144 38.1255155 -14.95910144 38.1255155 -17 41 C-21.38475456 43.92316971 -25.01092003 44.35705159 -30.125 43.375 C-33.99151701 42.43449586 -37.48661592 40.975889 -41.125 39.375 C-46.64723158 37.00434503 -50.50153288 36.50733612 -56.46875 37.34765625 C-63.40582592 38.23519391 -63.40582592 38.23519391 -67 36.8125 C-69.04997781 34.95470761 -69.85275472 33.47374763 -71 31 C-71.85658203 31.10828125 -71.85658203 31.10828125 -72.73046875 31.21875 C-91.92656172 33.41607702 -91.92656172 33.41607702 -99 30 C-100 29 -100 29 -100.0625 26.4375 C-100.041875 25.633125 -100.02125 24.82875 -100 24 C-94.50588874 21.77312235 -89.61376006 21.91783933 -83.83398438 22.34179688 C-81.48530578 22.47913608 -81.48530578 22.47913608 -78 22 C-76.28458494 20.3835512 -74.61375253 18.71795178 -73 17 C-70.17578125 16.4765625 -70.17578125 16.4765625 -67.3125 16.625 C-65.88357422 16.67527344 -65.88357422 16.67527344 -64.42578125 16.7265625 C-62 17 -62 17 -60 18 C-59.7525 17.236875 -59.505 16.47375 -59.25 15.6875 C-57.82439982 12.62245962 -56.99679976 11.53889718 -54 10 C-49.59051846 9.60629629 -46.83934743 9.88667499 -43 12 C-42.65388672 11.09507813 -42.65388672 11.09507813 -42.30078125 10.171875 C-39.61047297 3.57902468 -37.12815303 0.59358739 -30.6875 -2.6875 C-21.22748461 -6.05462412 -8.23145429 -6.71717732 0 0 Z " fill="#EAF9FB" transform="translate(948,5)"/>
</svg>
