<svg height="200px" width="200px" version="1.1" id="Layer_1" xmlns="http://www.w3.org/2000/svg" xmlns:xlink="http://www.w3.org/1999/xlink" viewBox="0 0 30 30" xml:space="preserve">
<g id="gbaju" transform="scale(1) translate(0,0) " fill="#cfecf7"><path id="baju" d="M1 22 2 6 4 6 5 22 1 22M6 22 6 13 22 13 22 22 20 22 20 17C20 16 18 16 18 17L18 22 16 22 16 17C16 16 16 16 14 15 12 16 12 16 12 17L12 22 10 22 10 17C10 16 8 16 8 17L8 22 6 22M7 12C4 4 11 6 14 2 17 6 24 4 21 12L7 12M2 5 4 5C5 4 4 3 3 2 2 3 1 4 2 5"></path></g><g id="gbaju" transform="scale(1) translate(0,0) " fill="hsl(213,100%,27%)"><path id="baju" d="M5 15C8 15 9 15 11 15 12 19 12 22 12 27 11 27 10 27 9 27 9 23 9 21 8 18 7 21 7 23 7 27 6 27 5 27 4 27 4 22 4 19 5 15"></path></g><g id="gbaju" transform="scale(1) translate(0,0) " fill="#c4b3a4"><path id="baju" d="M5 7C7 6 9 6 11 7 11 12 12 16 12 20 9 22 7 22 4 20 4 16 5 12 5 7"></path></g><g id="gbaju" transform="scale(1) translate(0,0) " fill="hsl(213,100%,37%)"><path id="baju" d="M11 7C13 8 14 15 9 11L9 9C11 11 11 10 11 9L11 7M5 7C3 8 2 15 7 11L7 9C5 11 5 10 5 9L5 7"></path></g><g id="gbaju" transform="scale(1) translate(0,0) " fill="#fee0bc"><path id="baju" d="M8 2C5 2 6 6 8 6 10 6 11 2 8 2"></path></g><g id="gbaju" transform="scale(1) translate(0,0) " fill="hsl(213,100%,37%)"><path id="baju" d="M18 15C21 15 22 15 24 15 25 19 25 26 25 27 25 28 17 28 17 27 17 26 17 19 18 15"></path></g><g id="gbaju" transform="scale(1) translate(0,0) " fill="hsl(213,100%,27%)"><path id="baju" d="M21 2C24 2 23 6 24 7 26 7 26 15 26 19 23 20 20 20 16 19 16 15 16 7 18 7 19 6 18 2 21 2"></path></g><g id="gbaju" transform="scale(1) translate(13, 1) " fill="#fee0bc"><path id="baju" d="M8 2C5 2 6 6 8 6 10 6 11 2 8 2"></path></g><g id="gbaju" transform="scale(1) translate(-6, -8) " fill="#fee0bc"><path id="baju" d="M13 16C14 16 14 18 13 18 12 17 12 16 13 16"></path></g><g id="gbaju" transform="scale(1) translate(-4, -8) " fill="#fee0bc"><path id="baju" d="M13 16C14 16 14 18 13 18 12 17 12 16 13 16"></path></g>
</svg>
